<svg xmlns="http://www.w3.org/2000/svg" width="25.157" height="25.157" viewBox="0 0 25.157 25.157">
  <g id="instagram" transform="translate(1 1)">
    <path id="Path_112" data-name="Path 112" d="M8.789,3H20.368a5.789,5.789,0,0,1,5.789,5.789V20.368a5.789,5.789,0,0,1-5.789,5.789H8.789A5.789,5.789,0,0,1,3,20.368V8.789A5.789,5.789,0,0,1,8.789,3Z" transform="translate(-3 -3)" fill="none" stroke="#fff" stroke-linecap="round" stroke-linejoin="round" stroke-width="2"/>
    <path id="Path_113" data-name="Path 113" d="M21.278,15.887a4.631,4.631,0,1,1-3.9-3.9,4.631,4.631,0,0,1,3.9,3.9Z" transform="translate(-5.068 -5.038)" fill="none" stroke="#fff" stroke-linecap="round" stroke-linejoin="round" stroke-width="2"/>
    <path id="Path_114" data-name="Path 114" d="M26.25,9.75h0" transform="translate(-8.303 -4.54)" fill="none" stroke="#fff" stroke-linecap="round" stroke-linejoin="round" stroke-width="2"/>
  </g>
</svg>
