<svg xmlns="http://www.w3.org/2000/svg" width="42" height="42" viewBox="0 0 42 42">
  <g id="Group_163564" data-name="Group 163564" transform="translate(-6280.431 2464)">
    <rect id="Rectangle_148498" data-name="Rectangle 148498" width="42" height="42" rx="4" transform="translate(6280.431 -2464)" fill="rgba(4,0,63,0.11)"/>
    <g id="Group_163563" data-name="Group 163563" transform="translate(3240.302 -3142.873)">
      <path id="Path_180" data-name="Path 180" d="M3121.891,693.07c-1.332-1.4-1.42-3.092-.269-4.311a2.9,2.9,0,0,1,4.019-.152c1.314,1.162,1.3,2.768-.073,4.476,1.882.814,2.309,2.385,2.191,4.234-.037.579-.289.847-.879.85-2.108.011-4.216.006-6.324.007-.445,0-.809-.17-.849-.638a5.236,5.236,0,0,1,.284-2.686A3.514,3.514,0,0,1,3121.891,693.07Z" transform="translate(-62.586)" fill="#04003f"/>
      <path id="Path_181" data-name="Path 181" d="M3112.679,800.074h9.611c-.193,1.842-.381,3.637-.576,5.494a13.591,13.591,0,0,0-8.459.009C3113.061,803.725,3112.874,801.931,3112.679,800.074Z" transform="translate(-56.358 -100.116)" fill="#04003f"/>
      <path id="Path_182" data-name="Path 182" d="M3055.515,799.738c.207,1.971.406,3.863.6,5.714l-3.785,2.336c-.427-.636-.956-1.329-1.381-2.081a11.287,11.287,0,0,1-1.431-5.268c-.017-.5.134-.715.663-.709C3051.965,799.751,3053.748,799.738,3055.515,799.738Z" transform="translate(0 -99.809)" fill="#04003f"/>
      <path id="Path_183" data-name="Path 183" d="M3203.878,805.448c.2-1.861.393-3.753.6-5.706h2.466c.981,0,1.963,0,2.945,0,.357,0,.59.105.585.512a11.6,11.6,0,0,1-2.851,7.524Z" transform="translate(-137.732 -99.818)" fill="#04003f"/>
      <path id="Path_184" data-name="Path 184" d="M3120.795,852.826a12.261,12.261,0,0,1,7.881-.011,11.978,11.978,0,0,1-2,4.508,4.064,4.064,0,0,1-.52.539,1.946,1.946,0,0,1-2.835,0,4.993,4.993,0,0,1-.716-.792A12.341,12.341,0,0,1,3120.795,852.826Z" transform="translate(-63.599 -146.6)" fill="#04003f"/>
      <path id="Path_185" data-name="Path 185" d="M3052.539,718.686c-.856-1.176-.817-2.342.063-3.137a2.134,2.134,0,0,1,2.836-.031c.9.8.955,1.954.114,3.155a2.778,2.778,0,0,1,1.408,2.932c-.035.5-.263.759-.766.759-1.428,0-2.855.01-4.283,0-.6,0-.775-.214-.807-.823A2.7,2.7,0,0,1,3052.539,718.686Z" transform="translate(-1.41 -24.202)" fill="#04003f"/>
      <path id="Path_186" data-name="Path 186" d="M3210.391,718.7a2.214,2.214,0,0,1,.023-3.108,2.149,2.149,0,0,1,2.842-.086c.941.794,1.005,1.907.154,3.2a2.725,2.725,0,0,1,1.4,2.886c-.036.561-.23.788-.789.792q-2.145.015-4.291,0c-.528,0-.731-.236-.76-.76A2.747,2.747,0,0,1,3210.391,718.7Z" transform="translate(-142.265 -24.212)" fill="#04003f"/>
      <path id="Path_187" data-name="Path 187" d="M3179.668,859.857l3.446,2.153a11.881,11.881,0,0,1-6.076,3.2A12.65,12.65,0,0,0,3179.668,859.857Z" transform="translate(-113.784 -153.459)" fill="#04003f"/>
      <path id="Path_188" data-name="Path 188" d="M3087.349,865.247a11.794,11.794,0,0,1-6.059-3.186l3.425-2.147A12.763,12.763,0,0,0,3087.349,865.247Z" transform="translate(-28.35 -153.51)" fill="#04003f"/>
    </g>
  </g>
</svg>
