<svg xmlns="http://www.w3.org/2000/svg" width="42" height="42" viewBox="0 0 42 42">
  <g id="Group_163566" data-name="Group 163566" transform="translate(-6401 2568.807)">
    <rect id="Rectangle_148499" data-name="Rectangle 148499" width="42" height="42" rx="4" transform="translate(6401 -2568.807)" fill="rgba(4,0,63,0.11)"/>
    <g id="Group_163565" data-name="Group 163565" transform="translate(5938.348 -3658.184)">
      <path id="Path_144" data-name="Path 144" d="M536.647,1208.209c-2.453-.428-4.43-1.932-6.622-2.947a.641.641,0,0,1-.3-.476c-.017-2.766-.011-5.531-.008-8.3a1.053,1.053,0,0,1,.042-.193c2.56-.161,5.127-.276,7.37,1.259a5.8,5.8,0,0,0,3.982,1,4.6,4.6,0,0,1,1.337.1,1.193,1.193,0,0,1,.973.985,1.206,1.206,0,0,1-.549,1.213,3.435,3.435,0,0,1-2.117.768c-.666.022-1.334-.019-2-.025-.44,0-.8.135-.8.647a.616.616,0,0,0,.728.658,24.139,24.139,0,0,0,3.157-.269,3.176,3.176,0,0,0,2.536-2.129,1.338,1.338,0,0,1,.775-.808c1.221-.576,2.421-1.194,3.633-1.789a2.242,2.242,0,0,1,3.426,1.234v.706a3.044,3.044,0,0,1-1.345,1.629c-.694.438-1.348.941-2.05,1.366-3.435,2.083-6.828,4.255-10.75,5.365Z" transform="translate(-53.701 -86.056)" fill="#04003f"/>
      <path id="Path_145" data-name="Path 145" d="M588.729,1105.413c-.2-1.257-.2-1.258-1-1.263-1.242-.008-1.242-.008-1.469,1.292a16.3,16.3,0,0,1-5.5-2.4c-.065-.043-.184-.093-.182-.137a21.031,21.031,0,0,1,.123-2.372c.02-.146.512-.313.79-.323,1.113-.037,2.228-.015,3.412-.015,0-.349.006-.636,0-.922a.574.574,0,0,1,.632-.671c1.314-.007,2.629-.01,3.943,0a.583.583,0,0,1,.628.68c-.005.273,0,.546,0,.912h2.651c1.72,0,1.669,0,1.742,1.736a1.528,1.528,0,0,1-.923,1.6A15.619,15.619,0,0,1,588.729,1105.413Zm-2.9-5.29h3.318v-.774c-.928,0-1.823,0-2.718,0C585.722,1099.35,585.722,1099.352,585.827,1100.123Z" transform="translate(-98.542 0)" fill="#04003f"/>
      <path id="Path_146" data-name="Path 146" d="M474.812,1194.509c0,1.489,0,2.978,0,4.467,0,.654-.146.8-.789.8q-2.206.007-4.412,0c-.669,0-.806-.13-.806-.778q-.005-4.525,0-9.051c0-.625.173-.789.811-.791q2.177-.006,4.354,0c.661,0,.842.176.844.826C474.816,1191.491,474.812,1193,474.812,1194.509Zm-2.234-2.931a.773.773,0,0,0-1.546-.033.747.747,0,0,0,.755.786A.756.756,0,0,0,472.578,1191.578Z" transform="translate(0 -79.838)" fill="#04003f"/>
      <path id="Path_147" data-name="Path 147" d="M594.067,1143.941c0,1.776,0,3.442,0,5.108a.8.8,0,0,1-.83.868c-.175.016-.353.006-.529.006q-5.71,0-11.42,0c-.968,0-1.162-.2-1.163-1.179q0-2.087,0-4.175v-.663a15.133,15.133,0,0,0,1.509.817c1.268.51,2.546,1,3.841,1.432.344.116.473.218.468.581-.01.757.136.88.89.883.216,0,.432-.011.647,0,.558.033.82-.256.772-.778-.043-.466.17-.579.58-.675a16.65,16.65,0,0,0,4.71-1.925C593.686,1144.155,593.836,1144.073,594.067,1143.941Z" transform="translate(-98.149 -39.944)" fill="#04003f"/>
      <path id="Path_148" data-name="Path 148" d="M635.408,1150.6v2.341h-1.143V1150.6Z" transform="translate(-145.884 -45.846)" fill="#04003f"/>
    </g>
  </g>
</svg>
