<svg xmlns="http://www.w3.org/2000/svg" width="42" height="42" viewBox="0 0 42 42">
  <g id="Group_163558" data-name="Group 163558" transform="translate(-6348 2515)">
    <g id="Group_163556" data-name="Group 163556" transform="translate(5550 -3308)">
      <rect id="Rectangle_989" data-name="Rectangle 989" width="42" height="42" rx="4" transform="translate(798 793)" fill="rgba(4,0,63,0.11)"/>
      <g id="Group_268" data-name="Group 268" transform="translate(259.779 -401.226)">
        <path id="Path_140" data-name="Path 140" d="M546.667,1235.166a.882.882,0,0,1-.472-.9c.012-1.509.005-3.02.005-4.529v-.313h24.322v.323c0,1.529,0,3.058,0,4.588a.769.769,0,0,1-.52.83Z" transform="translate(-0.297 -4.781)" fill="#04003f"/>
        <path id="Path_141" data-name="Path 141" d="M546.589,1223.378c0-.733-.008-1.412,0-2.091a1.862,1.862,0,0,1,1.443-1.916,2.223,2.223,0,0,1,.527-.058c.5-.007,1.007-.007,1.51,0a.759.759,0,0,1,.855.684q.332,1.394.653,2.792c.151.65.161.663.835.583a.277.277,0,0,0,.193-.161q.319-1.123.611-2.254a.482.482,0,0,0-.048-.279c-.119-.281-.257-.555-.376-.836-.139-.332-.02-.519.335-.529.306-.008.612-.01.917,0,.321.013.433.2.318.5a.693.693,0,0,1-.061.134,1.925,1.925,0,0,0-.168,1.869,11.717,11.717,0,0,1,.355,1.343.246.246,0,0,0,.28.223c.647.008.648.017.8-.609q.32-1.352.637-2.7c.139-.589.341-.756.943-.76.454,0,.907,0,1.362,0a1.919,1.919,0,0,1,2.06,2.076c0,.65,0,1.3,0,1.969h4.914v-1.127h-.307c-.908,0-1.817,0-2.724,0a.985.985,0,0,1-1.1-1.1q0-2.5,0-5a.963.963,0,0,1,1.028-1.047q4.352-.008,8.706,0a.959.959,0,0,1,1.046,1.053q0,2.5,0,5a.982.982,0,0,1-1.1,1.093c-.9,0-1.8,0-2.695,0h-.336v1.134c.107.006.212.015.316.015.77,0,1.54,0,2.311,0a.994.994,0,0,1,1.123,1.132c0,.178.006.356,0,.533a.97.97,0,0,1-1.072,1.033q-2.014,0-4.027,0H545.6c-.9,0-1.231-.333-1.232-1.233,0-.129,0-.257,0-.385a.982.982,0,0,1,1.086-1.082C545.82,1223.373,546.183,1223.378,546.589,1223.378Z" transform="translate(0 -2.444)" fill="#04003f"/>
        <path id="Path_142" data-name="Path 142" d="M577.8,1205.355a5.29,5.29,0,1,1-5.3-5.289A5.3,5.3,0,0,1,577.8,1205.355Zm-1.422-.023a3.794,3.794,0,0,0-3.849-3.818v3.818Z" transform="translate(-3.721)" fill="#04003f"/>
        <path id="Path_143" data-name="Path 143" d="M558.784,1210.721c0,.789.046,1.581-.008,2.366a4.234,4.234,0,0,1-8.385.489,8.935,8.935,0,0,1-.088-1.414c-.014-.562-.007-1.124,0-1.687a1.905,1.905,0,0,1,1.646-2.032q2.8-.565,5.6-1.088a.96.96,0,0,1,1.261,1.057c.005.769,0,1.54,0,2.309Z" transform="translate(-0.965 -1.182)" fill="#04003f"/>
      </g>
    </g>
    <g id="Group_163557" data-name="Group 163557" transform="translate(5809.779 -3709.226)">
      <path id="Path_140-2" data-name="Path 140" d="M546.667,1235.166a.882.882,0,0,1-.472-.9c.012-1.509.005-3.02.005-4.529v-.313h24.322v.323c0,1.529,0,3.058,0,4.588a.769.769,0,0,1-.52.83Z" transform="translate(-0.297 -4.781)" fill="#04003f"/>
      <path id="Path_141-2" data-name="Path 141" d="M546.589,1223.378c0-.733-.008-1.412,0-2.091a1.862,1.862,0,0,1,1.443-1.916,2.223,2.223,0,0,1,.527-.058c.5-.007,1.007-.007,1.51,0a.759.759,0,0,1,.855.684q.332,1.394.653,2.792c.151.65.161.663.835.583a.277.277,0,0,0,.193-.161q.319-1.123.611-2.254a.482.482,0,0,0-.048-.279c-.119-.281-.257-.555-.376-.836-.139-.332-.02-.519.335-.529.306-.008.612-.01.917,0,.321.013.433.2.318.5a.693.693,0,0,1-.061.134,1.925,1.925,0,0,0-.168,1.869,11.717,11.717,0,0,1,.355,1.343.246.246,0,0,0,.28.223c.647.008.648.017.8-.609q.32-1.352.637-2.7c.139-.589.341-.756.943-.76.454,0,.907,0,1.362,0a1.919,1.919,0,0,1,2.06,2.076c0,.65,0,1.3,0,1.969h4.914v-1.127h-.307c-.908,0-1.817,0-2.724,0a.985.985,0,0,1-1.1-1.1q0-2.5,0-5a.963.963,0,0,1,1.028-1.047q4.352-.008,8.706,0a.959.959,0,0,1,1.046,1.053q0,2.5,0,5a.982.982,0,0,1-1.1,1.093c-.9,0-1.8,0-2.695,0h-.336v1.134c.107.006.212.015.316.015.77,0,1.54,0,2.311,0a.994.994,0,0,1,1.123,1.132c0,.178.006.356,0,.533a.97.97,0,0,1-1.072,1.033q-2.014,0-4.027,0H545.6c-.9,0-1.231-.333-1.232-1.233,0-.129,0-.257,0-.385a.982.982,0,0,1,1.086-1.082C545.82,1223.373,546.183,1223.378,546.589,1223.378Z" transform="translate(0 -2.444)" fill="#04003f"/>
      <path id="Path_142-2" data-name="Path 142" d="M577.8,1205.355a5.29,5.29,0,1,1-5.3-5.289A5.3,5.3,0,0,1,577.8,1205.355Zm-1.422-.023a3.794,3.794,0,0,0-3.849-3.818v3.818Z" transform="translate(-3.721)" fill="#04003f"/>
      <path id="Path_143-2" data-name="Path 143" d="M558.784,1210.721c0,.789.046,1.581-.008,2.366a4.234,4.234,0,0,1-8.385.489,8.935,8.935,0,0,1-.088-1.414c-.014-.562-.007-1.124,0-1.687a1.905,1.905,0,0,1,1.646-2.032q2.8-.565,5.6-1.088a.96.96,0,0,1,1.261,1.057c.005.769,0,1.54,0,2.309Z" transform="translate(-0.965 -1.182)" fill="#04003f"/>
    </g>
  </g>
</svg>
