<svg xmlns="http://www.w3.org/2000/svg" width="62" height="62" viewBox="0 0 62 62">
  <g id="Group_163570" data-name="Group 163570" transform="translate(-6342.644 2326)">
    <circle id="Ellipse_169" data-name="Ellipse 169" cx="31" cy="31" r="31" transform="translate(6342.644 -2326)" fill="#d7d7de"/>
    <g id="Group_163569" data-name="Group 163569" transform="translate(3479.571 -2712.454)">
      <path id="Path_189" data-name="Path 189" d="M2920.752,411.1c-.491,0-.984.025-1.473-.005a3.411,3.411,0,0,0-3.349,1.355c-1.964,2.481-5.857,1.987-7.542-.729a1.164,1.164,0,0,0-1.167-.634c-2.051.03-4.1.018-6.155.01-1,0-1.229-.233-1.231-1.231-.006-2.894-.257-2.665,2.567-2.668,1.647,0,3.295.028,4.94-.024a1.329,1.329,0,0,0,.933-.522,4.849,4.849,0,0,1,8.358-.027,1.04,1.04,0,0,0,1.022.585c2.022-.03,4.045-.015,6.068-.012,1.253,0,1.419.166,1.43,1.387.024,2.655.107,2.536-2.493,2.514C2922.023,411.094,2921.387,411.1,2920.752,411.1Zm-6.632-1.958a1.641,1.641,0,0,0-3.282-.058,1.642,1.642,0,1,0,3.282.058Z" transform="translate(-18.391)" fill="#04003f"/>
      <path id="Path_190" data-name="Path 190" d="M2884.85,467.532a7.241,7.241,0,0,1-7.29-6.735,2.906,2.906,0,0,1,.343-1.563c1.84-3.22,3.73-6.412,5.612-9.608a1.541,1.541,0,0,1,2.629.021c1.82,3.1,3.62,6.208,5.469,9.289a3.3,3.3,0,0,1,.458,2.239A7.305,7.305,0,0,1,2884.85,467.532Zm5.483-7.822-5.515-9.369-5.5,9.369Z" transform="translate(0 -36.872)" fill="#04003f"/>
      <path id="Path_191" data-name="Path 191" d="M2991.2,467.615a7.241,7.241,0,0,1-7.186-6.568,3.139,3.139,0,0,1,.338-1.733c1.86-3.275,3.783-6.514,5.693-9.761a1.624,1.624,0,0,1,2.407-.041c1.96,3.318,3.97,6.61,5.8,10a4.17,4.17,0,0,1,.04,2.68A7.182,7.182,0,0,1,2991.2,467.615Zm.063-17.2-5.492,9.359h10.986Z" transform="translate(-87.905 -36.955)" fill="#04003f"/>
    </g>
  </g>
</svg>
