<svg xmlns="http://www.w3.org/2000/svg" width="42" height="42" viewBox="0 0 42 42">
  <g id="Group_163569" data-name="Group 163569" transform="translate(-6223.5 2581)">
    <rect id="Rectangle_148501" data-name="Rectangle 148501" width="42" height="42" rx="4" transform="translate(6223.5 -2581)" fill="rgba(4,0,63,0.11)"/>
    <path id="Icon_awesome-calendar-alt" data-name="Icon awesome-calendar-alt" d="M0,17.5a1.811,1.811,0,0,0,1.81,1.81H15.084a1.811,1.811,0,0,0,1.81-1.81V7.241H0Zm12.068-7.391a.454.454,0,0,1,.453-.453h1.508a.454.454,0,0,1,.453.453v1.508a.454.454,0,0,1-.453.453H12.52a.454.454,0,0,1-.453-.453Zm0,4.827a.454.454,0,0,1,.453-.453h1.508a.454.454,0,0,1,.453.453v1.508a.454.454,0,0,1-.453.453H12.52a.454.454,0,0,1-.453-.453ZM7.241,10.107a.454.454,0,0,1,.453-.453H9.2a.454.454,0,0,1,.453.453v1.508a.454.454,0,0,1-.453.453H7.693a.454.454,0,0,1-.453-.453Zm0,4.827a.454.454,0,0,1,.453-.453H9.2a.454.454,0,0,1,.453.453v1.508a.454.454,0,0,1-.453.453H7.693a.454.454,0,0,1-.453-.453ZM2.414,10.107a.454.454,0,0,1,.453-.453H4.374a.454.454,0,0,1,.453.453v1.508a.454.454,0,0,1-.453.453H2.866a.454.454,0,0,1-.453-.453Zm0,4.827a.454.454,0,0,1,.453-.453H4.374a.454.454,0,0,1,.453.453v1.508a.454.454,0,0,1-.453.453H2.866a.454.454,0,0,1-.453-.453ZM15.084,2.414h-1.81V.6a.605.605,0,0,0-.6-.6H11.464a.605.605,0,0,0-.6.6v1.81H6.034V.6a.605.605,0,0,0-.6-.6H4.224a.605.605,0,0,0-.6.6v1.81H1.81A1.811,1.811,0,0,0,0,4.224v1.81H16.895V4.224A1.811,1.811,0,0,0,15.084,2.414Z" transform="translate(6236.053 -2570)" fill="#04003f"/>
  </g>
</svg>
