<svg xmlns="http://www.w3.org/2000/svg" width="42" height="42" viewBox="0 0 42 42">
  <g id="Group_163568" data-name="Group 163568" transform="translate(-6370.144 2447.807)">
    <rect id="Rectangle_148500" data-name="Rectangle 148500" width="42" height="42" rx="4" transform="translate(6370.144 -2447.807)" fill="rgba(4,0,63,0.11)"/>
    <g id="Group_163567" data-name="Group 163567" transform="translate(5946.764 -3186.555)">
      <path id="Path_149" data-name="Path 149" d="M438.286,1127.13c.173.049.343.11.519.144a3.965,3.965,0,0,0,2.037-.241,7,7,0,0,0,3.261-2.468c.215-.274.415-.561.611-.849.3-.439.582-.586.97-.488a1.026,1.026,0,0,1,.75.96c.016.268,0,.539,0,.808a5.147,5.147,0,0,0,.249,1.755,8.721,8.721,0,0,0,.378.818,1.793,1.793,0,0,0-1.261,1.458,2.175,2.175,0,0,0,.416,1.938,1.955,1.955,0,0,0-.215,2.788c-.19.049-.363.095-.537.137a12.376,12.376,0,0,1-5.571-.014,17.474,17.474,0,0,1-1.925-.536,4.411,4.411,0,0,1-.925-.514,3.461,3.461,0,0,0-1.247-.6c-.036-.006-.072-.014-.108-.019a.583.583,0,0,1-.567-.639q-.006-.7-.006-1.4,0-2.894,0-5.788,0-.533.005-1.066a.564.564,0,0,1,.654-.645c.19,0,.381-.012.569.007a1.057,1.057,0,0,0,.773-.229c.456-.351.9-.712,1.352-1.072a20.751,20.751,0,0,1,3.481-2.312,9.209,9.209,0,0,1,2.677-.926,3.414,3.414,0,0,1,2.123.308,12.082,12.082,0,0,1,3.379,2.4,3.006,3.006,0,0,1,.942,2.223c-.026,1.027-.1,2.053-.185,3.077a1.71,1.71,0,0,1-.458.985,1.22,1.22,0,0,1-.854.451c-.3.018-.6.034-.9.026a1.232,1.232,0,0,1-.943-.5,2.883,2.883,0,0,1-.631-1.692c-.021-.348-.008-.7-.01-1.046a1.813,1.813,0,0,0-.442-1.269,1.508,1.508,0,0,0-2.427.176,20.462,20.462,0,0,1-1.28,1.676,5.561,5.561,0,0,1-2.519,1.779,13.421,13.421,0,0,1-1.709.316,3.83,3.83,0,0,1-.418.026Z" transform="translate(0 -359.761)" fill="#04003f"/>
      <path id="Path_150" data-name="Path 150" d="M586.5,836.571a2.162,2.162,0,0,0-.358-.041c-.427.021-.853.056-1.28.079a.233.233,0,0,1-.165-.058.491.491,0,0,0-.835.192.237.237,0,0,1-.109.14,12.518,12.518,0,0,0-2.425,1.127.991.991,0,0,1-.1.042c-.006-.076-.013-.135-.014-.193q-.075-3.1-.149-6.207c-.029-1.206-.058-2.412-.08-3.618a1.023,1.023,0,0,1,.074-.389.4.4,0,0,1,.356-.249q2.1-.215,4.2-.438l3.688-.387c.371-.039.743-.073,1.114-.112.279-.029.432.086.445.373a5.185,5.185,0,0,1-.029.6q-.33,4.534-.662,9.067-.064.879-.133,1.758c0,.058-.015.116-.025.2-.1-.066-.178-.117-.254-.176a12.036,12.036,0,0,0-2.182-1.312.19.19,0,0,1-.13-.219,1.4,1.4,0,0,0-1.073-1.547c-.292-.092-.588-.17-.875-.274a.8.8,0,0,1-.543-.956.758.758,0,0,1,.7-.549.693.693,0,0,1,.694.519c.026.082.045.166.073.246a.442.442,0,0,0,.55.3.456.456,0,0,0,.344-.514,1.525,1.525,0,0,0-1.019-1.157.487.487,0,0,0-.14-.044c-.156-.016-.231-.078-.224-.254a.287.287,0,1,0-.574.017c.005.148-.054.193-.187.227a1.546,1.546,0,0,0-1.1,2.035,1.574,1.574,0,0,0,.956.908c.267.118.556.187.829.293a2.081,2.081,0,0,1,.466.244,1.1,1.1,0,0,1,.2.282Zm-4.66-4.117a2.977,2.977,0,0,0,1.53-.642,4.809,4.809,0,0,0,1.735-3.23c.026-.19.032-.384.049-.6l-3.385.364Zm4.964-4.649a4.231,4.231,0,0,0,.661,2.563,2.441,2.441,0,0,0,2.161,1.165c.166,0,.214-.057.223-.22.05-.9.112-1.807.17-2.711.024-.376.046-.751.069-1.146Z" transform="translate(-140.513 -78.857)" fill="#04003f"/>
      <path id="Path_151" data-name="Path 151" d="M464.737,747.4c-.226.024-.428.038-.627.068-.127.018-.123-.078-.144-.146-.154-.484-.3-.969-.455-1.453-.018-.057-.039-.112-.063-.181l-7.514,3.669,1.465,3.851a3.722,3.722,0,0,0,1.586-1.648l.188,7.917-.032.015c-.025-.054-.052-.107-.074-.162q-1.17-2.942-2.339-5.884-.808-2.029-1.618-4.057a1.186,1.186,0,0,1-.089-.315.457.457,0,0,1,.307-.507l5.713-2.772,2.36-1.145a.371.371,0,0,1,.591.25c.129.408.244.821.366,1.231S464.606,746.967,464.737,747.4Z" transform="translate(-19.171)" fill="#04003f"/>
      <path id="Path_152" data-name="Path 152" d="M747.262,1396.313c-.563,0-1.127,0-1.69,0a1.252,1.252,0,1,1,0-2.5q1.69-.008,3.38-.005a1.256,1.256,0,0,1,.313,2.479,1.559,1.559,0,0,1-.328.029c-.557,0-1.114,0-1.672,0Z" transform="translate(-297.807 -625.331)" fill="#04003f"/>
      <path id="Path_153" data-name="Path 153" d="M738.428,1476.869c.514,0,1.028,0,1.542,0a1.177,1.177,0,0,1,1.207,1.168,1.157,1.157,0,0,1-1.189,1.166q-1.57.015-3.139.006a1.17,1.17,0,0,1-1.187-1.169,1.155,1.155,0,0,1,1.187-1.164c.526-.007,1.053,0,1.579,0Z" transform="translate(-289.492 -705.342)" fill="#04003f"/>
      <path id="Path_154" data-name="Path 154" d="M863.951,1302.989a6.174,6.174,0,0,1,.97.1,1.346,1.346,0,0,1,.962,1.449,1.364,1.364,0,0,1-1.22,1.225c-.51.034-1.024.007-1.56.007A4.253,4.253,0,0,0,863.951,1302.989Z" transform="translate(-412.245 -537.86)" fill="#04003f"/>
      <path id="Path_155" data-name="Path 155" d="M876.3,1209.912a5.587,5.587,0,0,0-.394-3.014,2.339,2.339,0,0,1,1.506.263,1.516,1.516,0,0,1,.584,1.685,1.492,1.492,0,0,1-1.426,1.066C876.492,1209.913,876.413,1209.912,876.3,1209.912Z" transform="translate(-424.578 -445.297)" fill="#04003f"/>
    </g>
  </g>
</svg>
