<svg xmlns="http://www.w3.org/2000/svg" width="42" height="42" viewBox="0 0 42 42">
  <g id="Group_163562" data-name="Group 163562" transform="translate(-6309.5 2581)">
    <rect id="Rectangle_148497" data-name="Rectangle 148497" width="42" height="42" rx="4" transform="translate(6309.5 -2581)" fill="rgba(4,0,63,0.11)"/>
    <g id="Group_163561" data-name="Group 163561" transform="translate(3951.38 -3256.463)">
      <path id="Path_178" data-name="Path 178" d="M2370.556,708.011c.07-.47.129-.921.206-1.369a20.77,20.77,0,0,1,1.468-5.081,8.5,8.5,0,0,1,3.062-3.874c-.33-.269-.667-.511-.965-.793a10.037,10.037,0,0,1-2.324-3.651,22.979,22.979,0,0,1-1.385-5.49c-.006-.04-.014-.08-.026-.149-.366,0-.73,0-1.095,0a.854.854,0,0,1-.947-.938c0-.091,0-.183,0-.274a.86.86,0,0,1,.939-.927c1.141,0,2.282,0,3.423,0h15.739c.731,0,1.062.318,1.044,1.046a1.8,1.8,0,0,1-.153.712.722.722,0,0,1-.685.381c-.257,0-.515,0-.8,0-.07.434-.132.858-.207,1.28a20.229,20.229,0,0,1-1.546,5.134,8.3,8.3,0,0,1-2.939,3.629c.006.024.005.047.015.053a8.3,8.3,0,0,1,2.878,3.529,20.867,20.867,0,0,1,1.689,5.813c.042.262.079.526.1.79.012.141.071.185.2.18.183-.007.367-.007.55,0a.867.867,0,0,1,.894.927c0,.075,0,.15,0,.224a.877.877,0,0,1-1,.99q-2.736,0-5.471,0-6.82,0-13.641-.007a1.579,1.579,0,0,1-.664-.154.709.709,0,0,1-.37-.614c-.087-.985.212-1.436,1.267-1.373C2370.06,708.023,2370.3,708.011,2370.556,708.011Zm1.465-20.394c.048.359.084.7.14,1.03a13.188,13.188,0,0,0,1.744,4.919,6.324,6.324,0,0,0,3.568,2.877c.173.052.349.1.526.145v2.462c-.042.013-.079.027-.118.036a6.157,6.157,0,0,0-3.8,2.71,12.384,12.384,0,0,0-1.814,4.6c-.085.422-.145.85-.216,1.275.048-.007.06-.018.064-.033a5.617,5.617,0,0,1,3.9-3.747,11.024,11.024,0,0,1,5.794-.223,6.276,6.276,0,0,1,3.764,2.232,17.812,17.812,0,0,1,1.014,1.61c-.034,0-.029-.032-.034-.062a14.548,14.548,0,0,0-1.735-5.11,6.5,6.5,0,0,0-3.974-3.233c-.059-.016-.125-.139-.127-.213-.01-.573-.006-1.147-.005-1.72,0-.191-.066-.433.026-.559s.343-.154.527-.217a6.515,6.515,0,0,0,3.429-2.908,13.659,13.659,0,0,0,1.713-4.542c.089-.435.152-.875.231-1.332Z" fill="#04003f"/>
      <path id="Path_179" data-name="Path 179" d="M2512.234,812.027a2.915,2.915,0,0,1-.567,1.169,3.553,3.553,0,0,1-2.223,1.321,5.677,5.677,0,0,1-3.588-.347,3.041,3.041,0,0,1-1.654-1.867c-.028-.085-.046-.172-.072-.276Z" transform="translate(-128.815 -120.24)" fill="#04003f"/>
    </g>
  </g>
</svg>
