<svg xmlns="http://www.w3.org/2000/svg" width="17.309" height="17.29" viewBox="0 0 17.309 17.29">
  <g id="Group_163537" data-name="Group 163537" transform="translate(-157.055 -259.558)">
    <path id="Path_2568" data-name="Path 2568" d="M250.922,342.26a4.172,4.172,0,0,1,4.1-1.717,5.563,5.563,0,0,1,1.089.212,3.354,3.354,0,0,1,2.331,2.844,12.881,12.881,0,0,1,.2,2.18c.027,2.072.011,4.145.011,6.218,0,.089-.009.178-.015.3h-3.571v-.375c0-1.881.018-3.762-.015-5.643a6.324,6.324,0,0,0-.268-1.653,1.332,1.332,0,0,0-1.173-.939,2.026,2.026,0,0,0-2.517,2.227c-.041,1.993-.02,3.987-.026,5.981,0,.132,0,.265,0,.424H247.5c-.008-.112-.025-.23-.025-.348,0-3.6,0-7.209-.008-10.813,0-.3.091-.379.383-.373.9.018,1.8.021,2.7,0,.311-.007.388.1.37.386C250.906,341.528,250.922,341.894,250.922,342.26Z" transform="translate(-84.303 -75.476)" fill="#0073b1"/>
    <path id="Path_2569" data-name="Path 2569" d="M165.035,356.047H161.47v-11.52c.1-.006.213-.019.321-.019.957,0,1.915.011,2.872-.008.3-.006.38.076.379.376-.012,2.7-.007,5.407-.007,8.11q0,1.335,0,2.669Z" transform="translate(-4.117 -79.198)" fill="#0073b1"/>
    <path id="Path_2570" data-name="Path 2570" d="M157.055,261.621a2.074,2.074,0,0,1,4.148.018,2.074,2.074,0,1,1-4.148-.018Z" transform="translate(0)" fill="#0073b1"/>
  </g>
</svg>
