<svg xmlns="http://www.w3.org/2000/svg" width="276" height="72.639" viewBox="0 0 276 72.639">
  <g id="logo-white" transform="translate(-73.558 -52.701)">
    <path id="_3" data-name="3" d="M129.922,142.045a61.877,61.877,0,0,1-7.382-7.52,24.568,24.568,0,0,1-13.732-43.754,41.507,41.507,0,0,1-3.5-9.48c2.819,5.363,6.758,10.484,12.014,13.562-2.13,11.39,4.432,35.517,12.6,47.191" transform="translate(-24.623 -16.705)" fill="#fff" fill-rule="evenodd"/>
    <path id="_2" data-name="2" d="M177.228,178.462a24.439,24.439,0,0,1-9.755,4.217c-1.441-6.339-2.161-12.685-1.2-18.308a27.708,27.708,0,0,0,10.951,14.092" transform="translate(-63.367 -65.246)" fill="#fff" fill-rule="evenodd"/>
    <path id="_1" data-name="1" d="M146.548,80.229q.461.153.913.325a6.425,6.425,0,0,0-3.206-4.33A5.574,5.574,0,0,0,137,77.541l-1.956-5.269,11.569-2.05,5.676,9.995-3.051,1.091a24.571,24.571,0,0,1,5.261,41.1l.614,2.223c-4.938-6.834-11.5-23.133-10.478-31.105,3.736.557,8.647,4.6,14.538,11.7-2.668-10.388-8.728-15.462-16.122-18.885a4.737,4.737,0,1,0-6.432-2.55l-.655-.227c-3.922-1.348-7.838-4.53-11.337-8.258a29.023,29.023,0,0,0,7.925,4.458,24.49,24.49,0,0,1,4.013-.7,5.328,5.328,0,0,1,9.987,1.163" transform="translate(-39.286 -10.237)" fill="#fff" fill-rule="evenodd"/>
    <path id="star" d="M99.654,52.7l2.773,2.862,3.718-1.436-1.865,3.521,2.514,3.092-3.926-.686L100.7,63.4l-.561-3.946-3.851-1.024,3.579-1.753Z" transform="translate(-22.734 0)" fill="#fff" fill-rule="evenodd"/>
    <g id="Group_1" data-name="Group 1" transform="translate(133.562 78.01)">
      <path id="Path_1" data-name="Path 1" d="M82.022,258.757H75.891V240.833l-6.768,17.923H63.817l-6.9-17.923v17.923H50.787V231.891H57.5a4.332,4.332,0,0,1,1.237.178,4.5,4.5,0,0,1,1.1.488,3.732,3.732,0,0,1,.872.749,3.117,3.117,0,0,1,.562.966l4.706,13.443q.094.3.178.675c.057.251.109.487.16.713q.075.393.131.824a5.694,5.694,0,0,1,.094-.806c.038-.225.084-.465.14-.722a3.663,3.663,0,0,1,.216-.684l4.668-13.443a2.937,2.937,0,0,1,.581-1.012,3.7,3.7,0,0,1,.9-.75,4.33,4.33,0,0,1,1.106-.459,4.668,4.668,0,0,1,1.2-.16h6.674Z" transform="translate(-50.787 -231.891)" fill="#fff"/>
      <path id="Path_2" data-name="Path 2" d="M100.78,258.757H95.943V231.891h11.886a8.177,8.177,0,0,1,3.215.637,8.369,8.369,0,0,1,2.634,1.743,8.164,8.164,0,0,1,1.772,2.6,7.891,7.891,0,0,1,.647,3.178,5.162,5.162,0,0,1-.178,1.219,7.22,7.22,0,0,1-.5,1.377,5.027,5.027,0,0,1-.778,1.181,1.863,1.863,0,0,1-1.041.628,2.633,2.633,0,0,1,1.454.685,5.551,5.551,0,0,1,1.153,1.462,8.494,8.494,0,0,1,.769,1.884,7.2,7.2,0,0,1,.282,1.931,8.037,8.037,0,0,1-.666,3.262,8.434,8.434,0,0,1-7.771,5.062Zm1.294-20.735v4.05h5.98a1.819,1.819,0,0,0,.75-.16,1.958,1.958,0,0,0,1.031-1.068,2.029,2.029,0,0,0,.15-.779,2.134,2.134,0,0,0-.562-1.444,1.91,1.91,0,0,0-.619-.441,1.819,1.819,0,0,0-.75-.159Zm6.974,14.6a1.86,1.86,0,0,0,.806-.178,2.084,2.084,0,0,0,.656-.487,2.481,2.481,0,0,0,.45-.713,2.183,2.183,0,0,0,.169-.854,2.226,2.226,0,0,0-.16-.843,2.12,2.12,0,0,0-.44-.685,2.268,2.268,0,0,0-.657-.469,1.856,1.856,0,0,0-.806-.178h-6.993v4.406Z" transform="translate(-58.222 -231.891)" fill="#fff"/>
      <path id="Path_3" data-name="Path 3" d="M134.835,231.891h5.288l11.736,26.866H147.9a4.414,4.414,0,0,1-1.19-.159,3.91,3.91,0,0,1-1.059-.469,4.175,4.175,0,0,1-.881-.749,3.7,3.7,0,0,1-.638-1l-1.312-2.981H132.136l-1.275,2.981a3.379,3.379,0,0,1-.628.937,4.891,4.891,0,0,1-.909.759,4.329,4.329,0,0,1-1.088.506,3.954,3.954,0,0,1-1.163.178H123.1Zm-.243,15.935h5.737l-2.344-5.624a5.912,5.912,0,0,1-.262-.731c-.063-.226-.112-.425-.15-.6a3.212,3.212,0,0,1-.094-.562c-.025.175-.063.369-.112.581q-.056.263-.16.6c-.069.225-.153.463-.253.713Z" transform="translate(-62.693 -231.891)" fill="#fff"/>
      <path id="Path_4" data-name="Path 4" d="M205.684,258.757h-6.131V240.833l-6.769,17.923h-5.305l-6.9-17.923v17.923h-6.131V231.891h6.711a4.334,4.334,0,0,1,1.238.178,4.5,4.5,0,0,1,1.1.488,3.694,3.694,0,0,1,.871.749,3.071,3.071,0,0,1,.563.966l4.706,13.443q.094.3.179.675c.056.251.109.487.159.713.05.262.094.537.131.824a5.579,5.579,0,0,1,.094-.806c.038-.225.084-.465.14-.722a3.664,3.664,0,0,1,.216-.684l4.668-13.443a2.937,2.937,0,0,1,.581-1.012,3.7,3.7,0,0,1,.9-.75,4.3,4.3,0,0,1,1.106-.459,4.662,4.662,0,0,1,1.2-.16h6.674Z" transform="translate(-71.147 -231.891)" fill="#fff"/>
      <path id="Path_5" data-name="Path 5" d="M226.672,231.891h5.287L243.7,258.757H239.74a4.414,4.414,0,0,1-1.19-.159,3.91,3.91,0,0,1-1.059-.469,4.176,4.176,0,0,1-.881-.749,3.7,3.7,0,0,1-.638-1l-1.312-2.981H223.973l-1.275,2.981a3.379,3.379,0,0,1-.628.937,4.89,4.89,0,0,1-.909.759,4.328,4.328,0,0,1-1.088.506,3.955,3.955,0,0,1-1.163.178h-3.974Zm-.243,15.935h5.737l-2.344-5.624a5.917,5.917,0,0,1-.262-.731c-.063-.226-.112-.425-.15-.6a3.211,3.211,0,0,1-.094-.562c-.025.175-.063.369-.112.581q-.056.263-.16.6c-.069.225-.153.463-.254.713Z" transform="translate(-77.814 -231.891)" fill="#fff"/>
      <path id="Path_6" data-name="Path 6" d="M252.484,258.757V231.891H263.6a13.469,13.469,0,0,1,6.825,1.837,14.068,14.068,0,0,1,2.747,2.109,13.32,13.32,0,0,1,2.128,2.719,13.568,13.568,0,0,1,1.369,3.206,13.338,13.338,0,0,1,0,7.142,13.583,13.583,0,0,1-1.369,3.206,13.292,13.292,0,0,1-2.128,2.718,13.767,13.767,0,0,1-2.747,2.1,13.6,13.6,0,0,1-3.234,1.35,13.435,13.435,0,0,1-3.59.478Zm11.118-6.149a7.125,7.125,0,0,0,2.822-.572,7.754,7.754,0,0,0,2.362-1.556,7.409,7.409,0,0,0,1.621-2.315,6.981,6.981,0,0,0,0-5.662,7.531,7.531,0,0,0-1.621-2.325,7.673,7.673,0,0,0-2.362-1.565,7.124,7.124,0,0,0-2.822-.572h-4.987v14.568Z" transform="translate(-83.996 -231.891)" fill="#fff"/>
      <path id="Path_7" data-name="Path 7" d="M305.83,258.757H287.944V231.891H305.83v5.736H294.075v4.706h9.561v5.736h-9.561v4.949H305.83Z" transform="translate(-89.834 -231.891)" fill="#fff"/>
    </g>
  </g>
</svg>
