<svg id="mail_2_" data-name="mail (2)" xmlns="http://www.w3.org/2000/svg" width="25.487" height="19.414" viewBox="0 0 25.487 19.414">
  <g id="Group_71" data-name="Group 71" transform="translate(1.28 0)">
    <g id="Group_70" data-name="Group 70">
      <path id="Path_108" data-name="Path 108" d="M47.688,61H26.681a2.214,2.214,0,0,0-.96.225L37.135,72.638l2.558-2.458h0l8.955-8.954A2.214,2.214,0,0,0,47.688,61Z" transform="translate(-25.721 -61)" fill="#b3bad2"/>
    </g>
  </g>
  <g id="Group_73" data-name="Group 73" transform="translate(16.836 1.281)">
    <g id="Group_72" data-name="Group 72">
      <path id="Path_109" data-name="Path 109" d="M346.64,86.728l-8.427,8.426,8.427,8.427a2.214,2.214,0,0,0,.225-.96V87.687A2.214,2.214,0,0,0,346.64,86.728Z" transform="translate(-338.213 -86.728)" fill="#b3bad2"/>
    </g>
  </g>
  <g id="Group_75" data-name="Group 75" transform="translate(0 1.28)">
    <g id="Group_74" data-name="Group 74" transform="translate(0 0)">
      <path id="Path_110" data-name="Path 110" d="M.225,86.721a2.214,2.214,0,0,0-.225.96v14.934a2.215,2.215,0,0,0,.224.959l8.427-8.426Z" transform="translate(0 -86.721)" fill="#b3bad2"/>
    </g>
  </g>
  <g id="Group_77" data-name="Group 77" transform="translate(1.28 10.763)">
    <g id="Group_76" data-name="Group 76">
      <path id="Path_111" data-name="Path 111" d="M40.214,277.211l-2.558,2.459a.746.746,0,0,1-1.056,0l-2.459-2.459-8.427,8.427a2.214,2.214,0,0,0,.96.225H47.681a2.214,2.214,0,0,0,.96-.225Z" transform="translate(-25.714 -277.211)" fill="#b3bad2"/>
    </g>
  </g>
</svg>
