<svg xmlns="http://www.w3.org/2000/svg" width="23.972" height="19.203" viewBox="0 0 23.972 19.203">
  <g id="main-icon" transform="translate(-1522 -63.682)">
    <path id="Path_54" data-name="Path 54" d="M489.171-116.673h17.938c.117.05.23.109.35.147a3.6,3.6,0,0,1,2.322,1.981c.117.253.225.51.337.765v13.309a.533.533,0,0,0-.1.136,3.576,3.576,0,0,1-3.8,2.861q-3.294,0-6.588,0c-3.313,0-6.626.012-9.939-.006a3.489,3.489,0,0,1-3.51-3.305q-.061-6.182-.021-12.366a3.49,3.49,0,0,1,2.708-3.39A2.154,2.154,0,0,0,489.171-116.673Zm-.644,6.567c-.012.267-.026.42-.026.573q0,4.076,0,8.152c0,1.115.426,1.537,1.54,1.538q8.065,0,16.131,0c1.172,0,1.556-.383,1.558-1.561q0-4.048,0-8.095c0-.18-.023-.36-.039-.589-.3.111-.536.194-.767.283-2.672,1.038-5.348,2.068-8.013,3.123a1.972,1.972,0,0,1-1.558.008c-1.983-.793-3.977-1.558-5.967-2.332C490.46-109.366,489.531-109.72,488.527-110.106Zm9.606-4.151c-2.716,0-5.432,0-8.149,0a1.31,1.31,0,0,0-1.334.717.7.7,0,0,0,.433,1.113q4.3,1.674,8.606,3.338a1.085,1.085,0,0,0,.7.058q4.5-1.717,8.98-3.49a.672.672,0,0,0,.32-.5c.034-.74-.516-1.23-1.352-1.232Q502.237-114.263,498.133-114.257Z" transform="translate(1035.854 180.355)" fill="#292929"/>
  </g>
</svg>
