<svg xmlns="http://www.w3.org/2000/svg" width="21.219" height="18.567" viewBox="0 0 21.219 18.567">
  <path id="Icon_awesome-sort-amount-up" data-name="Icon awesome-sort-amount-up" d="M12.6,18.164H9.946a.663.663,0,0,0-.663.663v1.326a.663.663,0,0,0,.663.663H12.6a.663.663,0,0,0,.663-.663V18.827A.663.663,0,0,0,12.6,18.164ZM.663,7.555H2.652v12.6a.663.663,0,0,0,.663.663H4.641a.663.663,0,0,0,.663-.663V7.555H7.294a.663.663,0,0,0,.469-1.132L4.447,2.444a.663.663,0,0,0-.937,0L.194,6.423A.664.664,0,0,0,.663,7.555Zm17.24,0H9.946a.663.663,0,0,0-.663.663V9.544a.663.663,0,0,0,.663.663H17.9a.663.663,0,0,0,.663-.663V8.218A.663.663,0,0,0,17.9,7.555Zm-2.652,5.3h-5.3a.663.663,0,0,0-.663.663v1.326a.663.663,0,0,0,.663.663h5.3a.663.663,0,0,0,.663-.663V13.523A.663.663,0,0,0,15.251,12.859Zm5.3-10.609H9.946a.663.663,0,0,0-.663.663V4.239a.663.663,0,0,0,.663.663H20.556a.663.663,0,0,0,.663-.663V2.913A.663.663,0,0,0,20.556,2.25Z" transform="translate(0 -2.25)" fill="#f4492c"/>
</svg>
