<svg xmlns="http://www.w3.org/2000/svg" width="32.936" height="23.158" viewBox="0 0 32.936 23.158">
  <path id="youtube" d="M33.3,8.123a4.138,4.138,0,0,0-2.912-2.931C27.817,4.5,17.518,4.5,17.518,4.5s-10.3,0-12.868.693A4.138,4.138,0,0,0,1.738,8.123,43.413,43.413,0,0,0,1.05,16.1a43.413,43.413,0,0,0,.688,7.979A4.077,4.077,0,0,0,4.65,26.965c2.569.693,12.868.693,12.868.693s10.3,0,12.868-.693A4.077,4.077,0,0,0,33.3,24.081a43.413,43.413,0,0,0,.688-7.979A43.413,43.413,0,0,0,33.3,8.123ZM14.149,21V11.205l8.608,4.9L14.149,21Z" transform="translate(-1.05 -4.5)" fill="#fff"/>
</svg>
