<svg xmlns="http://www.w3.org/2000/svg" width="38.772" height="38.773" viewBox="0 0 38.772 38.773">
  <g id="Notifications-list-img" transform="translate(-260.268 -440.59)" opacity="0.6">
    <path id="_6MPHG1sevqtgf3L4HujLx" d="M8.647,8.359A10.63,10.63,0,0,1,11.836.764,8.356,8.356,0,1,0,8.359,16.718a8.307,8.307,0,0,0,3.477-.764A10.63,10.63,0,0,1,8.647,8.359Z" transform="translate(272.293 448.038) rotate(46.001)" fill="#fff"/>
    <path id="_UwTGw_7hHC6DiiaZ34aOB" d="M8.359,3.19A10.626,10.626,0,0,1,.764,0,8.356,8.356,0,1,0,16.718,3.478,8.316,8.316,0,0,0,15.953,0,10.626,10.626,0,0,1,8.359,3.19Z" transform="translate(276.258 459.115) rotate(46.001)" fill="#fff"/>
    <path id="_fXbuTUJzsYN1P7VrFDvTy" d="M3.478,0A8.316,8.316,0,0,0,0,.764,10.626,10.626,0,0,1,3.19,8.359,10.626,10.626,0,0,1,0,15.953,8.356,8.356,0,1,0,3.478,0Z" transform="translate(290.817 451.786) rotate(46.001)" fill="#fff"/>
    <path id="_Gv_eQ6BGYVEs_FudcIAac" d="M8.359,8.647a10.63,10.63,0,0,1,7.594,3.189A8.356,8.356,0,1,0,0,8.359a8.307,8.307,0,0,0,.764,3.477A10.63,10.63,0,0,1,8.359,8.647Z" transform="translate(280.007 440.59) rotate(46.001)" fill="#fff"/>
  </g>
</svg>
