<svg xmlns="http://www.w3.org/2000/svg" width="51" height="51" viewBox="0 0 51 51">
  <g id="Group_163570" data-name="Group 163570" transform="translate(-6400 2674)">
    <circle id="Ellipse_169" data-name="Ellipse 169" cx="25.5" cy="25.5" r="25.5" transform="translate(6400 -2674)" fill="#f4492c"/>
    <g id="Group_163569" data-name="Group 163569" transform="translate(6412.857 -2658.077)">
      <path id="Path_54" data-name="Path 54" d="M489.259-116.673h18.463c.12.051.237.113.36.151a3.709,3.709,0,0,1,2.39,2.039c.12.261.232.525.347.788V-100a.549.549,0,0,0-.1.14,3.68,3.68,0,0,1-3.913,2.945q-3.39,0-6.781,0c-3.41,0-6.82.012-10.23-.006a3.591,3.591,0,0,1-3.613-3.4q-.063-6.363-.021-12.728a3.592,3.592,0,0,1,2.787-3.489A2.216,2.216,0,0,0,489.259-116.673Zm-.663,6.759c-.013.275-.026.432-.026.59q0,4.2,0,8.391c0,1.147.438,1.582,1.585,1.583q8.3,0,16.6,0c1.206,0,1.6-.395,1.6-1.607q.005-4.166,0-8.331c0-.185-.024-.371-.04-.606-.311.115-.552.2-.789.291-2.751,1.068-5.5,2.128-8.248,3.214a2.03,2.03,0,0,1-1.6.008c-2.041-.816-4.093-1.6-6.142-2.4C490.586-109.152,489.63-109.516,488.6-109.914Zm9.887-4.273c-2.8,0-5.591,0-8.388,0a1.349,1.349,0,0,0-1.373.739.724.724,0,0,0,.446,1.145q4.427,1.723,8.858,3.436a1.117,1.117,0,0,0,.723.06q4.633-1.767,9.243-3.592a.691.691,0,0,0,.33-.514c.035-.761-.531-1.266-1.392-1.268Q502.708-114.193,498.484-114.187Z" transform="translate(-486.145 116.673)" fill="#fff"/>
    </g>
  </g>
</svg>
