<svg xmlns="http://www.w3.org/2000/svg" width="20" height="15.532" viewBox="0 0 20 15.532">
  <path id="Path_2531" data-name="Path 2531" d="M-714.371-182.532a1.541,1.541,0,0,0-2.4.008q-4.083,4.082-8.164,8.165c-.471.471-.936.949-1.42,1.44-.1-.09-.153-.141-.207-.2q-1.674-1.673-3.349-3.346a1.523,1.523,0,0,0-2.284,0c-.185.183-.368.368-.552.552a1.539,1.539,0,0,0,0,2.377q2.776,2.779,5.554,5.555a1.041,1.041,0,0,0,1.654-.008l5.554-5.553q3.08-3.08,6.159-6.162a1.522,1.522,0,0,0,0-2.284C-714-182.165-714.187-182.348-714.371-182.532Z" transform="translate(733.306 183.1)" fill="#f4492c"/>
</svg>
